<?xml version="1.0" encoding="UTF-8" standalone="no"?>
<!-- Created with Inkscape (http://www.inkscape.org/) -->

<svg
   width="100"
   height="100"
   viewBox="0 0 100 100"
   version="1.1"
   id="svg1"
   inkscape:version="1.4.3 (0d15f75, 2025-12-25)"
   sodipodi:docname="drawing-formlines.svg"
   xmlns:inkscape="http://www.inkscape.org/namespaces/inkscape"
   xmlns:sodipodi="http://sodipodi.sourceforge.net/DTD/sodipodi-0.dtd"
   xmlns="http://www.w3.org/2000/svg"
   xmlns:svg="http://www.w3.org/2000/svg">
  <sodipodi:namedview
     id="namedview1"
     pagecolor="#ffffff"
     bordercolor="#666666"
     borderopacity="1.0"
     inkscape:showpageshadow="2"
     inkscape:pageopacity="0.0"
     inkscape:pagecheckerboard="false"
     inkscape:deskcolor="#d1d1d1"
     inkscape:document-units="px"
     showgrid="true"
     inkscape:zoom="22.042298"
     inkscape:cx="79.052556"
     inkscape:cy="45.616841"
     inkscape:current-layer="layer1">
    <inkscape:grid
       id="grid3"
       units="px"
       originx="0"
       originy="0"
       spacingx="2.5"
       spacingy="2.5"
       empcolor="#c48a00"
       empopacity="1"
       color="#0099e5"
       opacity="0.76078431"
       empspacing="4"
       enabled="true"
       visible="true" />
    <inkscape:grid
       id="grid4"
       units="px"
       originx="0"
       originy="0"
       spacingx="10"
       spacingy="10"
       empcolor="#0099e5"
       empopacity="0"
       color="#f20068"
       opacity="0.91372549"
       empspacing="5"
       enabled="true"
       visible="true" />
  </sodipodi:namedview>
  <defs
     id="defs1" />
  <g
     inkscape:label="Layer 1"
     inkscape:groupmode="layer"
     id="layer1">
    <path
       id="t"
       style="fill:none;stroke:#000000;stroke-width:1.00157;stroke-linecap:round;stroke-linejoin:round;stroke-dasharray:none"
       d="m 34.499215,85.000831 c 0,9.499963 -6.71573,9.499963 -15,9.499963 -8.284271,0 -15,0 -15,-9.499963 0,-9.499963 6.715729,-9.499963 15,-9.499963 8.28427,0 15,0 15,9.499963 z"
       sodipodi:nodetypes="zszsz" />
    <path
       id="p"
       style="fill:none;stroke:#000000;stroke-width:1.00157;stroke-linecap:round;stroke-linejoin:round;stroke-dasharray:none"
       d="m 26.999215,85.000831 c 0,6.999947 -4.365226,6.999947 -9.750004,6.999947 -5.384778,0 -9.750005,0 -9.750005,-6.999947 0,-6.999947 4.365227,-6.999947 9.750005,-6.999947 5.384778,0 9.750004,0 9.750004,6.999947 z"
       sodipodi:nodetypes="zszsz" />
    <path
       style="fill:none;stroke:#000000;stroke-width:1.00157;stroke-linecap:round;stroke-linejoin:round;stroke-dasharray:none;stroke-opacity:1"
       d="m 64.999999,35.999997 c 0,0 -3.632789,1.233922 -4.999999,2.500003 -3.565247,3.301533 -3.935455,10.481794 -7.499993,12.500004 -3.564537,2.01821 -10,6e-6 -10,6e-6 0,0 2.53377,-0.216196 4.999999,-2.500003 2.466229,-2.283807 3.935455,-10.481794 7.499993,-12.500005 3.564537,-2.018209 10,-5e-6 10,-5e-6 z"
       id="s"
       sodipodi:nodetypes="cazczzc" />
    <path
       style="fill:none;stroke:#000000;stroke-width:1.00157;stroke-linecap:round;stroke-linejoin:round;stroke-dasharray:none;stroke-opacity:1"
       d="m 47.499999,35.999997 c 0,0 -3.632789,1.233922 -4.999999,2.500003 -3.565247,3.301533 -3.403763,12.500002 -7.499993,12.500004 l -10,6e-6 c 0,0 2.53377,-0.216196 4.999999,-2.500003 2.466229,-2.283807 3.403762,-12.500003 7.499993,-12.500005 z"
       id="s-semi"
       sodipodi:nodetypes="casczsc" />
    <path
       style="fill:none;stroke:#000000;stroke-width:1.00157;stroke-linecap:round;stroke-linejoin:round;stroke-dasharray:none;stroke-opacity:1"
       d="m 30,36.000003 -5,2.5 -7.5,12.5 h -10 l 5,-2.5 7.5,-12.5 z"
       id="s-raw"
       sodipodi:nodetypes="ccccccc" />
    <path
       style="fill:none;stroke:#000000;stroke-width:1.00157;stroke-linecap:round;stroke-linejoin:round;stroke-dasharray:none;stroke-opacity:1"
       d="m 22.5,20.5 v 10 H 10 v -10 L 12.5,28 H 20 Z"
       id="u-raw"
       sodipodi:nodetypes="ccccccc" />
    <path
       style="fill:none;stroke:#000000;stroke-width:1.00157;stroke-linecap:round;stroke-linejoin:round;stroke-dasharray:none;stroke-opacity:1"
       d="m 40,20.5 c 0,0 0.765527,4.536271 0,7.5 -0.37332,1.445304 -1.407316,2.5 -2.5,2.5 H 30 c -1.127741,0 -2.13247,-0.98471 -2.5,-2.5 -0.718801,-2.963545 0,-7.5 0,-7.5 L 30,28 h 7.5 z"
       id="u-semi"
       sodipodi:nodetypes="csssscccc" />
    <path
       style="fill:none;stroke:#000000;stroke-width:1.00157;stroke-linecap:round;stroke-linejoin:round;stroke-dasharray:none;stroke-opacity:1"
       d="m 57.5,20.5 c 0,0 0.765527,4.536271 0,7.5 -0.37332,1.445304 -1.407316,2.5 -2.5,2.5 h -7.5 c -1.127741,0 -2.13247,-0.98471 -2.5,-2.5 -0.718801,-2.963545 0,-7.5 0,-7.5 l 1.208329,5 C 46.81752,28.020798 47.5,28 50,28 h 2.5 c 2.5,0 3.189501,-0.0083 3.791671,-2.5 z"
       id="u"
       sodipodi:nodetypes="csssscssssc" />
    <path
       id="o"
       style="fill:none;stroke:#000000;stroke-width:1.00157;stroke-linecap:round;stroke-linejoin:round;stroke-dasharray:none"
       d="m 15,70 c -5.384778,0 -9.500009,1.999945 -9.500009,-5 0,-6.999947 4.115231,-7.5 9.500009,-7.5 5.384778,0 10,0.500053 10,7.5 0,6.999945 -4.615222,5 -10,5 z"
       sodipodi:nodetypes="czszc" />
    <path
       style="fill:none;stroke:#000000;stroke-width:1.00157;stroke-linecap:round;stroke-linejoin:round;stroke-dasharray:none;stroke-opacity:1"
       d="m 76.25,30.5 c 0,0 0.765527,-19.536271 0,-22.5000003 C 75.87668,6.554696 74.842684,5.5 73.75,5.5 h -7.5 c -1.127741,0 -2.13247,0.98471 -2.5,2.4999997 C 63.031199,10.963545 63.75,30.5 63.75,30.5 l 1.208329,-17 C 65.142197,10.913162 66.25,11 68.75,11 h 2.5 c 2.5,0 3.609926,-0.05699 3.791672,2.5 z"
       id="path1"
       sodipodi:nodetypes="csssscssssc" />
    <path
       style="fill:none;stroke:#000000;stroke-width:1.00157;stroke-linecap:round;stroke-linejoin:round;stroke-dasharray:none;stroke-opacity:1"
       d="m 76.25,30.5 c 0,0 -1.123759,-10.283229 -1.945118,-12 C 72.5,14.727509 71.260028,16.963959 70.536768,13.540629 L 70,11 69.464401,13.544112 C 68.744372,16.96427 67.5,14.820145 65.695118,18.5 64.854211,20.21447 63.75,30.5 63.75,30.5"
       id="path2"
       sodipodi:nodetypes="csscssc" />
    <path
       style="fill:none;stroke:#000000;stroke-width:1.00157;stroke-linecap:round;stroke-linejoin:round;stroke-dasharray:none;stroke-opacity:1"
       d="m 93.25,30.5 c 0,0 0.765527,-19.536271 0,-22.5000003 C 92.87668,6.554696 91.842684,5.5 90.75,5.5 h -7.5 c -1.127741,0 -2.13247,0.98471 -2.5,2.4999997 C 80.031199,10.963545 80.75,30.5 80.75,30.5 l 1.208329,-17 C 82.142197,10.913162 83.25,11 85.75,11 h 2.5 c 2.5,0 3.609926,-0.05699 3.791672,2.5 z"
       id="path3"
       sodipodi:nodetypes="csssscssssc" />
    <path
       style="fill:none;stroke:#000000;stroke-width:1.00157;stroke-linecap:round;stroke-linejoin:round;stroke-dasharray:none;stroke-opacity:1"
       d="m 93.25,30.5 c 0,0 -1.123759,-7.283229 -1.945118,-9 C 89.5,17.727509 88.260028,16.963959 87.536768,13.540629 L 87,11 86.464401,13.544112 C 85.744372,16.96427 84.5,17.820145 82.695118,21.5 81.854211,23.21447 80.75,30.5 80.75,30.5"
       id="path4"
       sodipodi:nodetypes="csscssc" />
    <path
       id="path18"
       style="fill:none;stroke:#000000;stroke-width:1.00157;stroke-linecap:round;stroke-linejoin:round;stroke-dasharray:none"
       d="m 74,85 a 5,5 0 0 1 -5,5 5,5 0 0 1 -5,-5 5,5 0 0 1 5,-5 5,5 0 0 1 5,5 z" />
    <path
       style="fill:none;stroke:#000000;stroke-width:1.00157;stroke-linecap:round;stroke-linejoin:round;stroke-dasharray:none;stroke-opacity:1"
       d="m 57.5,7.5 c 0,0 0.765527,4.536271 0,7.5 -0.37332,1.445304 -1.407316,2.5 -2.5,2.5 H 47.5 C 46.372259,17.5 45.36753,16.51529 45,15 44.281199,12.036455 45,7.5 45,7.5 l 1.208329,5 C 46.81752,15.020798 47.5,15 50,15 h 2.5 c 2.5,0 3.189501,-0.0083 3.791671,-2.5 z"
       id="path6"
       sodipodi:nodetypes="csssscssssc" />
    <path
       style="fill:none;stroke:#000000;stroke-width:1.00157;stroke-linecap:round;stroke-linejoin:round;stroke-dasharray:none;stroke-opacity:1"
       d="m 57.510843,7.500168 c 0,0 -1.123759,3.690966 -1.945118,4.307167 -1.804882,1.354063 -3.044854,0.551333 -3.768114,1.780071 l -0.536768,0.911909 -0.535599,-0.91316 C 50.005215,12.358556 48.760843,13.128148 46.955961,11.807335 46.115054,11.19196 45.010843,7.500168 45.010843,7.500168"
       id="path7"
       sodipodi:nodetypes="csscssc" />
    <path
       style="fill:none;stroke:#000000;stroke-width:1.00157;stroke-linecap:round;stroke-linejoin:round;stroke-dasharray:none;stroke-opacity:1"
       d="m 40,7.5 c 0,0 0.765527,4.536271 0,7.5 -0.37332,1.445304 -1.407316,2.5 -2.5,2.5 H 30 c -1.127741,0 -2.13247,-0.98471 -2.5,-2.5 -0.718801,-2.963545 0,-7.5 0,-7.5 l 1.208329,5 C 29.31752,15.020798 30,15 32.5,15 H 35 c 2.5,0 3.189501,-0.0083 3.791671,-2.5 z"
       id="path8"
       sodipodi:nodetypes="csssscssssc" />
    <path
       style="fill:none;stroke:#000000;stroke-width:1.00157;stroke-linecap:round;stroke-linejoin:round;stroke-dasharray:none;stroke-opacity:1"
       d="m 40.010843,7.500168 c 0,0 -0.354973,0.690966 -1.299512,1.307167 C 36.63577,10.161398 34.908304,8.61517 34.64133,9.984205 L 33.75,15 32.85867,9.984205 C 32.615271,8.614521 30.885916,10.128148 28.810355,8.807335 27.843337,8.19196 27.510843,7.500168 27.510843,7.500168"
       id="path9"
       sodipodi:nodetypes="csscssc" />
    <path
       style="fill:none;stroke:#000000;stroke-width:1.00157;stroke-linecap:round;stroke-linejoin:round;stroke-dasharray:none;stroke-opacity:1"
       d="m 22.489157,7.5 c 0,0 0.765527,4.536271 0,7.5 -0.37332,1.445304 -1.407316,2.5 -2.5,2.5 h -7.5 c -1.127741,0 -2.13247,-0.98471 -2.5000002,-2.5 -0.718801,-2.963545 0,-7.5 0,-7.5 l 1.2083292,5 c 0.609191,2.520798 1.291671,2.5 3.791671,2.5 h 2.5 c 2.5,0 3.189501,-0.0083 3.791671,-2.5 z"
       id="path10"
       sodipodi:nodetypes="csssscssssc" />
    <path
       style="fill:none;stroke:#000000;stroke-width:1.00157;stroke-linecap:round;stroke-linejoin:round;stroke-dasharray:none;stroke-opacity:1"
       d="m 22.5,7.5448686 c 0,0 -0.864754,0.2508127 -1.592225,1.2242134 -1.239376,1.658361 -0.613115,3.225031 -1.780821,4.219317 -0.936384,0.79732 -2.240749,0.251567 -2.287969,-0.06457 l -0.599828,-4.015795 -0.599828,4.015795 c -0.0524,0.35081 -1.342648,0.887461 -2.270736,0.08067 C 12.217795,12.004117 12.822971,10.464566 11.628746,8.817019 10.894196,7.8036373 10,7.5448686 10,7.5448686"
       id="path11"
       sodipodi:nodetypes="csscssssc" />
    <path
       id="path13"
       style="fill:none;stroke:#000000;stroke-width:1.00157;stroke-linecap:round;stroke-linejoin:round;stroke-dasharray:none"
       d="M 43.374411,63.37441 A 3.3744117,3.3744115 0 0 1 40,66.74882 3.3744117,3.3744115 0 0 1 36.625589,63.37441 3.3744117,3.3744115 0 0 1 40,60 a 3.3744117,3.3744115 0 0 1 3.374411,3.37441 z" />
    <path
       id="path15"
       style="fill:none;stroke:#000000;stroke-width:1.00157;stroke-linecap:round;stroke-linejoin:round;stroke-dasharray:none"
       d="M 85.874411,64.12559 A 3.3744117,3.3744115 0 0 1 82.5,67.5 3.3744117,3.3744115 0 0 1 79.125589,64.12559 3.3744117,3.3744115 0 0 1 82.5,60.75118 a 3.3744117,3.3744115 0 0 1 3.374411,3.37441 z" />
    <path
       style="fill:none;stroke:#000000;stroke-width:1.00157;stroke-linecap:round;stroke-linejoin:round;stroke-dasharray:none;stroke-opacity:1"
       d="m 75,65 c 5,0 -0.814509,-5.75468 7.5,-5.78038 C 90.814509,59.19392 85,65 90,65"
       id="path16"
       sodipodi:nodetypes="czc" />
    <path
       id="path19"
       style="fill:none;stroke:#000000;stroke-width:1.00157;stroke-linecap:round;stroke-linejoin:round;stroke-dasharray:none"
       d="M 63.374411,63.92407 A 3.3744117,3.3744115 0 0 1 60,67.29848 3.3744117,3.3744115 0 0 1 56.625589,63.92407 3.3744117,3.3744115 0 0 1 60,60.54966 a 3.3744117,3.3744115 0 0 1 3.374411,3.37441 z" />
    <path
       style="fill:none;stroke:#000000;stroke-width:1.00157;stroke-linecap:round;stroke-linejoin:round;stroke-dasharray:none;stroke-opacity:1"
       d="m 52.5,63.87594 c 5,0 -0.814509,-4.63563 7.5,-4.65633 8.314509,-0.0207 2.5,4.65633 7.5,4.65633"
       id="path20"
       sodipodi:nodetypes="czc" />
    <path
       style="fill:none;stroke:#000000;stroke-width:1.00157;stroke-linecap:round;stroke-linejoin:round;stroke-dasharray:none;stroke-opacity:1"
       d="m 52.5,63.89157 c 5,0 -0.814509,4.63563 7.5,4.65633 8.314509,0.0207 2.5,-4.65633 7.5,-4.65633"
       id="path21"
       sodipodi:nodetypes="czc" />
    <path
       id="tri"
       style="fill:none;stroke:#000000;stroke-width:1.00157;stroke-linecap:round;stroke-linejoin:round"
       d="m 50.7,89.1 c -3.2,-0.1 -7.7,6 -9.2,3.1 -1.6,-2.8 5.9,-3.4 7.5,-6.2 1.7,-2.8 -1.3,-9.6 1.9,-9.6 3.3,0.1 0,6.8 1.6,9.6 1.6,2.8 9.1,3.5 7.3,6.4 -1.7,2.9 -6,-3.4 -9.1,-3.4 z"
       sodipodi:nodetypes="zzzzzzz" />
    <path
       style="fill:none;stroke:#000000;stroke-width:1.00157;stroke-linecap:round;stroke-linejoin:round;stroke-dasharray:none;stroke-opacity:1"
       d="m 79.5,85 c 0,-2.63523 4.864769,-2.5 7.5,-2.5 2.635231,0 7.5,-0.13523 7.5,2.5 0,2.63523 -4.864769,2.5 -7.5,2.5 -2.635231,0 -7.5,0.13523 -7.5,-2.5 z"
       id="path5"
       sodipodi:nodetypes="zzzzz" />
    <path
       id="path22"
       style="fill:none;stroke:#000000;stroke-width:1.00157;stroke-linecap:round;stroke-linejoin:round;stroke-dasharray:none"
       d="m 37.5,70 c -5.384778,0 -9.500009,1.999945 -9.500009,-5 0,-6.999947 4.115231,-7.5 9.500009,-7.5 5.384778,0 10,0.500053 10,7.5 0,6.999945 -4.615222,5 -10,5 z"
       sodipodi:nodetypes="czszc" />
    <path
       id="path23"
       style="fill:none;stroke:#000000;stroke-width:1.00157;stroke-linecap:round;stroke-linejoin:round;stroke-dasharray:none"
       d="m 60,70 c -5.384778,0 -9.500009,1.999945 -9.500009,-5 0,-6.999947 4.115231,-7.5 9.500009,-7.5 5.384778,0 10,0.500053 10,7.5 0,6.999945 -4.615222,5 -10,5 z"
       sodipodi:nodetypes="czszc" />
    <path
       id="path24"
       style="fill:none;stroke:#000000;stroke-width:1.00157;stroke-linecap:round;stroke-linejoin:round;stroke-dasharray:none"
       d="m 82.5,70 c -5.384778,0 -9.500009,1.999945 -9.500009,-5 0,-6.999947 4.115231,-7.5 9.500009,-7.5 5.384778,0 10,0.500053 10,7.5 0,6.999945 -4.615222,5 -10,5 z"
       sodipodi:nodetypes="czszc" />
    <path
       style="fill:none;stroke:#000000;stroke-width:1.00157;stroke-linecap:round;stroke-linejoin:round;stroke-dasharray:none;stroke-opacity:1"
       d="m 81.62082,34.750567 c 0,0 -3.465919,1.645336 -4.677713,3.060885 -3.15997,3.6913 -2.698207,10.866255 -6.005727,13.282742 -3.30752,2.416486 -9.933046,1.155246 -9.933046,1.155246 0,0 2.491829,-0.50746 4.677712,-3.060885 2.185882,-2.553424 2.698207,-10.866254 6.005728,-13.282742 3.307519,-2.416487 9.933046,-1.155246 9.933046,-1.155246 z"
       id="path25"
       sodipodi:nodetypes="cazczzc" />
    <path
       style="fill:none;stroke:#000000;stroke-width:1.00157;stroke-linecap:round;stroke-linejoin:round;stroke-dasharray:none;stroke-opacity:1"
       d="m 96.62082,34.750567 c 0,0 -3.465919,1.645336 -4.677713,3.060885 -3.15997,3.6913 -2.698207,10.866255 -6.005727,13.282742 -3.30752,2.416486 -9.933046,1.155246 -9.933046,1.155246 0,0 2.491829,-0.50746 4.677712,-3.060885 2.185882,-2.553424 2.698207,-10.866254 6.005728,-13.282742 3.307519,-2.416487 9.933046,-1.155246 9.933046,-1.155246 z"
       id="path26"
       sodipodi:nodetypes="cazczzc" />
    <path
       style="fill:none;stroke:#000000;stroke-width:1.00157;stroke-linecap:round;stroke-linejoin:round;stroke-dasharray:none;stroke-opacity:1"
       d="m 76.004334,52.24944 c 0,0 5.798119,-0.50746 7.984002,-3.060885 2.185882,-2.553424 2.335269,-9.550601 5.642789,-11.96709 1.731841,-1.26529 4.865934,-2.513202 6.989695,-2.470898"
       id="path27"
       sodipodi:nodetypes="czsc" />
  </g>
</svg>
